<?xml version="1.0" encoding="UTF-8"?>
<!DOCTYPE svg PUBLIC "-//W3C//DTD SVG 1.1//EN" "http://www.w3.org/Graphics/SVG/1.1/DTD/svg11.dtd">
<!-- Creator: CorelDRAW X7 -->
<svg xmlns="http://www.w3.org/2000/svg" xml:space="preserve" width="4.69607in" height="1.25574in" version="1.1" style="shape-rendering:geometricPrecision; text-rendering:geometricPrecision; image-rendering:optimizeQuality; fill-rule:evenodd; clip-rule:evenodd"
viewBox="0 0 1211 324"
 xmlns:xlink="http://www.w3.org/1999/xlink">
 <defs>
  <style type="text/css">
   <![CDATA[
    .fil0 {fill:white;fill-rule:nonzero}
   ]]>
  </style>
 </defs>
 <g id="Layer_x0020_1">
  <metadata id="CorelCorpID_0Corel-Layer"/>
  <path class="fil0" d="M418 179c0,97 -66,145 -199,145 -38,0 -71,-3 -99,-9 -27,-6 -50,-15 -68,-27 -18,-13 -31,-28 -39,-45 -9,-18 -13,-39 -13,-64l0 -179 98 0 0 179c0,12 2,22 5,30 3,8 9,14 18,19 8,5 21,9 37,11 15,2 36,3 61,3 19,0 35,-1 48,-4 13,-2 23,-5 31,-10 7,-6 13,-12 16,-20 3,-8 5,-17 5,-29l0 -179 99 0 0 179zm423 58l-39 0 0 81 133 0 139 0c24,0 45,-2 62,-7 17,-4 32,-11 43,-20 11,-9 19,-20 24,-33 5,-13 8,-28 8,-44 0,-29 -11,-51 -31,-65 -20,-15 -50,-22 -89,-22l-173 0c-12,0 -20,-2 -26,-5 -5,-3 -8,-9 -8,-17 0,-9 3,-14 8,-17 6,-4 14,-5 26,-5l179 0 42 0 52 0 0 -83 -94 0 -172 0c-24,0 -44,2 -62,7 -17,5 -31,12 -42,20 -11,9 -19,19 -24,31 -6,13 -8,26 -8,41 0,14 2,26 7,37 5,12 12,21 22,29 10,8 22,14 37,19 15,4 33,6 53,6l174 0c11,0 20,2 25,6 6,3 8,9 8,17 0,9 -2,14 -8,18 -5,4 -14,6 -25,6l-147 0 -94 0zm-407 -78l25 22c6,6 13,12 22,20 8,8 21,19 37,34l97 83 149 0 -132 -105c-21,-17 -38,-30 -51,-39 -7,-6 -14,-10 -20,-15 6,-4 13,-9 20,-14 13,-10 30,-23 51,-40l132 -105 -149 0 -97 84c-16,14 -29,25 -37,33 -9,8 -16,15 -22,20l-25 22z"/>
 </g>
</svg>
